<svg class="typst-doc" viewBox="0 0 595.2755905511812 341.9496686291533" width="595.2755905511812pt" height="341.9496686291533pt" xmlns="http://www.w3.org/2000/svg" xmlns:xlink="http://www.w3.org/1999/xlink" xmlns:h5="http://www.w3.org/1999/xhtml">
    <g>
        <g class="typst-group" transform="matrix(1 0 0 1 55.246923764163455 14.173228346456693)">
            <g>
                <path class="typst-shape" fill="none" stroke="#000000" stroke-width="1" stroke-linecap="butt" stroke-linejoin="miter" stroke-miterlimit="4" transform="matrix(1 0 0 1 371.3876095440749 56.452316000767794)" d="M 0 0m 108.07829 32.737606 c -13.220444 -28.35134 -46.989346 -40.642216 -75.34068 -27.421768 c -28.35134 13.220448 -40.642216 46.98935 -27.421768 75.34068 c 13.220448 28.351341 46.98935 40.64222 75.34068 27.421768 c 28.351341 -13.220444 40.64222 -46.989346 27.421768 -75.34068 Z "/>
                <path class="typst-shape" fill="none" stroke="#000000" stroke-width="1" stroke-linecap="butt" stroke-linejoin="miter" stroke-miterlimit="4" transform="matrix(1 0 0 1 228.58333577384258 139.6701105769922)" d="M 0 0m 86.46264 26.190084 c -10.576363 -22.681072 -37.59148 -32.51377 -60.272552 -21.937414 c -22.681072 10.576358 -32.51377 37.59148 -21.937414 60.272552 c 10.576358 22.681068 37.59148 32.51377 60.272552 21.937416 c 22.681068 -10.576363 32.51377 -37.59148 21.937416 -60.272552 Z "/>
                <path class="typst-shape" fill="none" stroke="#000000" stroke-width="1" stroke-linecap="butt" stroke-linejoin="miter" stroke-miterlimit="4" transform="matrix(1 0 0 1 63.100235307854405 200.20907845746072)" d="M 0 0m 108.07829 32.737606 c -13.220444 -28.35134 -46.989346 -40.642216 -75.34068 -27.421768 c -28.35134 13.220448 -40.642216 46.98935 -27.421768 75.34068 c 13.220448 28.351341 46.98935 40.64222 75.34068 27.421768 c 28.351341 -13.220444 40.64222 -46.989346 27.421768 -75.34068 Z "/>
                <path class="typst-shape" fill="none" stroke="#000000" stroke-width="2" stroke-linecap="butt" stroke-linejoin="miter" stroke-miterlimit="4" d="M 0 0l 435.43494 56.934967 c 24.9971 3.2684746 44.833008 22.650589 48.679016 47.565353 c 3.8460083 24.914764 -9.221924 49.376144 -32.069824 60.03029 l -308.28735 143.75677 c -18.765587 8.750519 -40.80912 6.5747375 -57.501816 -5.6756897 c -16.692703 -12.250458 -25.379215 -32.6268 -22.659271 -53.15291 c 2.7199402 -20.526108 16.413673 -37.93683 35.720886 -45.41687 l 158.23984 -61.305527 c 16.859772 -6.531845 35.988586 -2.4256897 48.682373 10.450058 c 12.693787 12.875763 16.527252 32.06108 9.7561035 48.826187 c -6.7711487 16.76509 -22.853241 27.90686 -40.928497 28.3555 l -103.88785 2.5785522 "/>
            </g>
        </g>
    </g>
</svg>
